HIERARCHY
ROOT Hips
{
	OFFSET 0.000000 0.000000 0.000000
	CHANNELS 6 Xposition Yposition Zposition Xrotation Yrotation Zrotation
	JOINT LeftUpLeg_virtual
	{
		OFFSET 0.000000 0.000000 0.000000
		CHANNELS 3 Xrotation Yrotation Zrotation
		JOINT LeftUpLeg
		{
			OFFSET 11.394100 -6.187798 -0.413800
			CHANNELS 3 Xrotation Yrotation Zrotation
			JOINT LeftLeg
			{
				OFFSET 0.430247 -32.302673 3.732800
				CHANNELS 3 Xrotation Yrotation Zrotation
				JOINT LeftFoot
				{
					OFFSET -0.430247 -48.264931 -6.423300
					CHANNELS 3 Xrotation Yrotation Zrotation
					JOINT LeftToeBase
					{
						OFFSET 4.230900 -16.068199 23.438400
						CHANNELS 3 Xrotation Yrotation Zrotation
						JOINT LeftToe_End
						{
							OFFSET 4.510700 0.695400 19.974600
							CHANNELS 3 Xrotation Yrotation Zrotation
							End Site
							{
								OFFSET 0 0 0
							}
						}
					}
				}
			}
		}
	}
	JOINT RightUpLeg_virtual
	{
		OFFSET 0.000000 0.000000 0.000000
		CHANNELS 3 Xrotation Yrotation Zrotation
		JOINT RightUpLeg
		{
			OFFSET -11.333700 -6.187798 -0.413800
			CHANNELS 3 Xrotation Yrotation Zrotation
			JOINT RightLeg
			{
				OFFSET -0.430392 -32.302628 3.733000
				CHANNELS 3 Xrotation Yrotation Zrotation
				JOINT RightFoot
				{
					OFFSET 0.430392 -48.264973 -6.423500
					CHANNELS 3 Xrotation Yrotation Zrotation
					JOINT RightToeBase
					{
						OFFSET -4.230900 -16.068199 23.438400
						CHANNELS 3 Xrotation Yrotation Zrotation
						JOINT RightToe_End
						{
							OFFSET -4.510700 0.695400 19.974600
							CHANNELS 3 Xrotation Yrotation Zrotation
							End Site
							{
								OFFSET 0 0 0
							}
						}
					}
				}
			}
		}
	}
	JOINT Spine_virtual
	{
		OFFSET 0.000000 0.000000 0.000000
		CHANNELS 3 Xrotation Yrotation Zrotation
		JOINT Spine
		{
			OFFSET -0.002400 12.777504 0.315300
			CHANNELS 3 Xrotation Yrotation Zrotation
			JOINT Spine1
			{
				OFFSET -0.002067 5.816869 0.032633
				CHANNELS 3 Xrotation Yrotation Zrotation
				JOINT Spine1_split
				{
					OFFSET -0.002067 5.816869 0.032633
					CHANNELS 3 Xrotation Yrotation Zrotation
					JOINT Spine2
					{
						OFFSET -0.002067 5.816869 0.032633
						CHANNELS 3 Xrotation Yrotation Zrotation
						JOINT Neck_virtual
						{
							OFFSET 0.000000 0.000000 0.000000
							CHANNELS 3 Xrotation Yrotation Zrotation
							JOINT Neck
							{
								OFFSET -0.003700 21.199493 -0.826900
								CHANNELS 3 Xrotation Yrotation Zrotation
								JOINT Head
								{
									OFFSET 0.000000 20.442200 4.834800
									CHANNELS 3 Xrotation Yrotation Zrotation
									JOINT HeadTop_End
									{
										OFFSET 0.000000 34.668396 4.968400
										CHANNELS 3 Xrotation Yrotation Zrotation
										End Site
										{
											OFFSET 0 0 0
										}
									}
								}
							}
						}
						JOINT LeftShoulder_virtual
						{
							OFFSET 0.000000 0.000000 0.000000
							CHANNELS 3 Xrotation Yrotation Zrotation
							JOINT LeftShoulder
							{
								OFFSET 3.288150 8.794197 -1.372250
								CHANNELS 3 Xrotation Yrotation Zrotation
								JOINT LeftShoulder_split
								{
									OFFSET 3.288150 8.794197 -1.372250
									CHANNELS 3 Xrotation Yrotation Zrotation
									JOINT LeftArm
									{
										OFFSET 11.953299 -2.279007 -0.146200
										CHANNELS 3 Xrotation Yrotation Zrotation
										JOINT LeftForeArm
										{
											OFFSET 18.448900 0.000000 0.000000
											CHANNELS 3 Xrotation Yrotation Zrotation
											JOINT LeftHand
											{
												OFFSET 29.527798 0.000000 0.000000
												CHANNELS 3 Xrotation Yrotation Zrotation
												End Site
												{
													OFFSET 0 0 0
												}
											}
										}
									}
								}
							}
						}
						JOINT RightShoulder_virtual
						{
							OFFSET 0.000000 0.000000 0.000000
							CHANNELS 3 Xrotation Yrotation Zrotation
							JOINT RightShoulder
							{
								OFFSET -3.249400 8.794197 -1.372250
								CHANNELS 3 Xrotation Yrotation Zrotation
								JOINT RightShoulder_split
								{
									OFFSET -3.249400 8.794197 -1.372250
									CHANNELS 3 Xrotation Yrotation Zrotation
									JOINT RightArm
									{
										OFFSET -11.953299 -2.279007 -0.146200
										CHANNELS 3 Xrotation Yrotation Zrotation
										JOINT RightForeArm
										{
											OFFSET -18.448900 0.000000 0.000000
											CHANNELS 3 Xrotation Yrotation Zrotation
											JOINT RightHand
											{
												OFFSET -29.527802 0.000000 0.000000
												CHANNELS 3 Xrotation Yrotation Zrotation
												End Site
												{
													OFFSET 0 0 0
												}
											}
										}
									}
								}
							}
						}
					}
				}
			}
		}
	}
}
MOTION
Frames: 11
Frame Time: 0.03333333
-2.477616 80.017502 -8.347340 0.000000 0.000000 0.000000 -1.834445 -34.370253 3.866057 -30.814269 -2.382091 9.618072 53.956824 0.250884 3.011589 -20.736147 6.215981 -14.965890 3.620527 -2.263175 -10.222231 0.000000 0.000000 0.000000 -1.842589 -35.345986 4.188531 -37.104436 -16.577603 -28.086546 61.781322 11.051267 -8.247996 -19.427476 -24.819413 33.872742 10.827470 15.407088 -34.055935 0.000000 0.000000 0.000000 -1.517911 -29.609478 2.199149 11.509804 2.790081 -2.419776 -2.150579 -1.046448 -1.704867 -0.033129 -0.208429 0.259207 0.000000 0.000000 0.000000 1.390977 1.409706 -0.126442 12.622479 11.312111 -1.235347 -16.252247 10.169510 -3.213917 0.000000 0.000000 0.000000 2.561649 -0.405453 -0.595894 1.490183 6.890973 -2.069040 -1.366105 -10.774667 -2.932794 -60.913007 -2.008472 -48.933381 -155.668153 -84.649540 -156.785462 0.000000 0.000000 0.000000 1.830962 -1.041560 -0.548951 -0.426569 9.612181 -4.394007 -0.531760 -4.748123 4.051194 -53.655248 29.121768 85.086501 -105.647624 77.029753 108.957042 0.000000 0.000000 0.000000 
-2.181325 79.371254 -7.276428 0.000000 0.000000 0.000000 -2.527987 -36.578921 3.637674 -32.342718 -2.995227 9.964356 55.315202 0.922585 2.145196 -19.792157 7.649374 -14.962453 3.826986 -2.075182 -11.938730 0.000000 0.000000 0.000000 -2.174742 -36.892597 4.052358 -37.080936 -16.170630 -28.371494 64.457253 11.324139 -8.721667 -21.343470 -25.057024 32.873171 14.155263 14.241913 -33.828469 0.000000 0.000000 0.000000 -1.769168 -30.617812 2.128094 12.015871 3.095525 -2.536401 -1.756074 -0.976298 -1.671800 -0.003179 -0.203364 0.290544 0.000000 0.000000 0.000000 1.320789 1.311210 0.004631 12.241427 11.409569 -0.618777 -17.001203 10.918395 -4.238523 0.000000 0.000000 0.000000 2.218431 -0.259536 -0.603580 1.136083 7.041046 -2.590718 -0.170323 -12.868220 -0.827039 -62.035412 -1.557103 -48.552140 -165.826557 -85.474934 -167.400929 0.000000 0.000000 0.000000 1.820849 -1.006296 -0.577056 -0.559130 9.934164 -4.384829 1.228791 -4.087280 4.324118 -54.042936 30.727607 85.377529 -113.645182 76.366918 117.253584 0.000000 0.000000 0.000000 
-1.745289 77.520790 -5.599300 0.000000 0.000000 0.000000 -3.153760 -39.003833 3.263385 -36.287993 -3.943663 11.449464 60.462590 -0.512444 1.288012 -17.819533 7.158971 -16.079891 4.147262 -2.271240 -13.357549 0.000000 0.000000 0.000000 -2.311570 -38.748220 3.922850 -37.516839 -15.381945 -29.124623 67.556704 12.053726 -9.798484 -22.508936 -25.419077 33.408231 13.702351 14.100468 -33.062589 0.000000 0.000000 0.000000 -1.981451 -32.747485 2.083724 12.954697 3.953241 -2.182398 -1.309548 -0.760432 -1.625906 -0.021152 -0.109230 0.229454 0.000000 0.000000 0.000000 1.410272 1.312050 0.167155 11.697829 11.883799 -0.111032 -18.066636 13.187898 -5.948100 0.000000 0.000000 0.000000 1.905925 -0.088039 -0.555726 0.893269 6.467587 -3.601172 1.230889 -13.217053 1.060607 -63.242962 -0.469171 -47.470166 -175.697204 -86.633382 -178.199608 0.000000 0.000000 0.000000 1.608832 -0.922528 -0.498335 -0.713336 10.621405 -4.548877 1.330268 -3.493285 4.075170 -52.215464 31.569920 84.220426 -122.950222 74.981837 126.501278 0.000000 0.000000 0.000000 
-1.228805 74.691940 -3.448368 0.000000 0.000000 0.000000 -3.600314 -41.291215 2.943234 -42.058263 -5.252528 13.965330 68.338078 -4.229067 1.251180 -14.319928 4.541865 -18.729190 1.638379 -2.568600 -13.199042 0.000000 0.000000 0.000000 -2.200208 -40.764348 3.852210 -38.486883 -14.206977 -30.265709 70.236194 13.224033 -11.288248 -22.777103 -25.738227 35.127560 9.907385 14.816741 -32.147156 0.000000 0.000000 0.000000 -2.338935 -35.618808 1.977034 14.183057 5.218262 -1.501352 -0.807617 -0.401620 -1.688767 -0.006190 -0.010168 0.114306 0.000000 0.000000 0.000000 1.649947 1.470687 0.251343 10.953959 12.757259 0.283866 -19.526246 16.946809 -7.997986 0.000000 0.000000 0.000000 1.727856 0.130339 -0.576761 0.801673 5.452836 -4.817768 2.407351 -11.876557 2.173644 -63.752002 1.977825 -45.363159 176.153707 -87.144048 172.552380 0.000000 0.000000 0.000000 1.285157 -0.752156 -0.431365 -0.938876 11.588125 -4.917656 0.100102 -2.559613 3.363250 -48.553069 31.247658 81.954757 -129.318581 73.500028 132.430538 0.000000 0.000000 0.000000 
-0.522252 71.394424 -1.072342 0.000000 0.000000 0.000000 -3.664336 -43.541011 2.887025 -47.733409 -6.472015 17.122215 76.152484 -8.385515 1.958484 -11.312384 0.861177 -20.697751 -4.982574 -3.004589 -11.212183 0.000000 0.000000 0.000000 -1.807300 -42.799253 3.961835 -40.184281 -12.581261 -31.776072 72.195414 14.700389 -12.936119 -22.442397 -25.827112 37.401641 6.578226 15.408982 -31.893059 0.000000 0.000000 0.000000 -2.705840 -38.916529 1.969259 15.477776 6.515006 -0.693231 -0.305033 0.031903 -1.926133 0.037264 0.021259 0.020774 0.000000 0.000000 0.000000 2.076831 1.784244 0.154807 10.052012 13.969812 0.680390 -21.272722 21.792101 -10.097426 0.000000 0.000000 0.000000 1.695967 0.417853 -0.804669 0.798369 4.270988 -6.052453 3.344557 -10.655793 3.849421 -62.890176 6.742241 -41.784881 172.454982 -85.381449 167.718601 0.000000 0.000000 0.000000 0.999403 -0.446824 -0.475681 -1.318132 12.677392 -5.573172 -1.655059 -1.360127 2.403641 -44.102084 30.098226 79.530730 -132.379749 72.707555 134.759632 0.000000 0.000000 0.000000 
0.198492 68.304253 1.589630 0.000000 0.000000 0.000000 -3.115572 -45.552676 3.244414 -52.380430 -7.262618 20.965761 82.118586 -11.735049 2.938383 -9.200709 -2.094821 -21.876599 -12.248016 -3.707660 -9.461871 0.000000 0.000000 0.000000 -1.282001 -44.628415 4.213900 -42.709620 -10.640800 -33.700478 73.525450 16.353612 -14.423556 -21.369790 -25.599387 39.917070 6.001302 15.497809 -33.027790 0.000000 0.000000 0.000000 -2.652755 -42.034504 2.277109 16.496145 7.507502 0.054576 0.151647 0.470892 -2.272137 0.074226 -0.051313 -0.068372 0.000000 0.000000 0.000000 2.667961 2.179946 -0.114346 9.159196 15.268200 1.242457 -23.193338 27.380517 -12.014263 0.000000 0.000000 0.000000 1.735800 0.752974 -1.270846 0.832613 3.253217 -7.134626 3.771291 -9.901399 5.705666 -61.590111 13.172487 -37.710762 170.454406 -80.768367 164.574364 0.000000 0.000000 0.000000 0.930064 -0.019392 -0.638371 -1.885935 13.557596 -6.391765 -3.665915 -0.957350 1.418505 -39.947324 29.142464 78.286815 -133.216201 72.929796 134.770697 0.000000 0.000000 0.000000 
0.709967 65.890999 4.729279 0.000000 0.000000 0.000000 -1.892731 -47.953071 3.946193 -55.599495 -7.852255 25.083117 85.233173 -14.043627 4.059869 -7.043232 -3.335541 -23.579379 -17.289661 -4.394938 -8.343934 0.000000 0.000000 0.000000 -0.681385 -45.877264 4.524430 -45.973740 -8.612407 -36.237879 74.431126 18.400210 -15.662285 -18.754197 -24.488096 43.507738 7.920566 15.220580 -35.796885 0.000000 0.000000 0.000000 -2.143321 -44.537188 2.764756 17.002878 7.816297 0.622590 0.523222 0.801426 -2.531018 0.113701 -0.094384 -0.073636 0.000000 0.000000 0.000000 3.340214 2.481226 -0.439515 8.313358 16.668640 2.078330 -24.878711 33.265521 -13.818309 0.000000 0.000000 0.000000 1.817032 1.015602 -1.835453 0.795819 2.586526 -8.014274 2.901779 -9.759607 6.845382 -60.853092 19.972786 -33.851046 166.956898 -74.365980 160.152472 0.000000 0.000000 0.000000 1.190464 0.421386 -0.770489 -2.594697 13.902998 -7.190470 -5.479471 -1.500471 0.760126 -36.735957 29.373495 78.228786 -134.623616 73.651815 135.524053 0.000000 0.000000 0.000000 
1.226891 64.437004 8.105236 0.000000 0.000000 0.000000 -0.442608 -50.349013 4.533965 -56.674488 -7.904607 29.165461 84.385471 -14.773624 4.529053 -5.025383 -2.232053 -25.070182 -18.002147 -4.994936 -7.568845 0.000000 0.000000 0.000000 -0.414220 -46.746860 4.521588 -49.113749 -6.804885 -39.082803 74.581185 20.692984 -16.526053 -15.089235 -22.269950 47.260650 11.742486 14.815140 -39.500336 0.000000 0.000000 0.000000 -1.090785 -46.129902 3.412181 16.827192 7.181299 0.873593 0.819875 0.823871 -2.462583 0.078797 -0.104141 0.046808 0.000000 0.000000 0.000000 3.962512 2.479270 -0.608270 7.543217 18.128119 3.224253 -25.446179 39.214063 -15.865213 0.000000 0.000000 0.000000 1.935699 0.992219 -2.199180 0.652229 2.358052 -8.530614 2.758920 -9.855366 7.608855 -61.402103 24.998752 -30.848850 160.221567 -69.260447 152.571591 0.000000 0.000000 0.000000 1.694100 0.648215 -0.664439 -3.459002 13.415903 -7.589021 -6.191896 -2.378076 0.479638 -34.819942 31.417914 78.891130 -140.051745 74.050254 140.611752 0.000000 0.000000 0.000000 
1.904252 63.961002 11.855118 0.000000 0.000000 0.000000 0.592542 -51.704068 4.432858 -56.326565 -7.560223 32.861819 79.834509 -14.044260 4.391650 -3.081895 0.772257 -26.253914 -14.683037 -5.511622 -6.582838 0.000000 0.000000 0.000000 -0.411483 -47.482768 3.996768 -50.269882 -6.006903 -41.245272 72.082224 22.462117 -16.309669 -12.699833 -20.682791 47.972066 14.439479 15.362634 -42.882045 0.000000 0.000000 0.000000 0.532475 -46.651452 3.965398 15.896850 5.487929 0.721968 1.102546 0.367225 -1.880946 0.142868 -0.031203 0.150280 0.000000 0.000000 0.000000 4.353893 2.043979 -0.386101 6.698597 19.616751 4.671148 -23.869399 44.979067 -18.911875 0.000000 0.000000 0.000000 2.158278 0.432619 -2.076411 0.412139 2.103922 -8.409233 4.502315 -9.464458 8.328436 -63.112867 26.903622 -28.954709 145.690162 -68.748682 137.143956 0.000000 0.000000 0.000000 2.403813 0.433261 -0.147852 -4.317936 12.027960 -7.559795 -5.849429 -2.927527 0.708817 -32.952835 35.159915 78.980674 -149.116909 73.832562 149.564272 0.000000 0.000000 0.000000 
2.674805 64.098923 16.250057 0.000000 0.000000 0.000000 1.255479 -52.086674 3.565226 -55.871630 -7.722606 35.659516 72.714850 -12.613234 4.221046 -0.606781 3.907549 -27.669945 -9.549609 -5.961051 -4.689894 0.000000 0.000000 0.000000 0.056978 -47.313871 3.261965 -48.789318 -6.338598 -42.201017 66.573929 23.546925 -14.851550 -11.276242 -20.334614 45.735001 13.179986 17.720513 -44.214410 0.000000 0.000000 0.000000 2.171927 -45.810560 3.869559 14.414544 2.825534 0.034750 1.296251 -0.667762 -0.738296 0.246377 0.067653 0.217382 0.000000 0.000000 0.000000 4.447833 1.133062 0.378264 5.459545 21.116054 6.552293 -19.237854 50.186038 -23.798262 0.000000 0.000000 0.000000 2.590528 -0.752616 -1.275130 0.202286 1.484211 -7.583990 6.609487 -8.127173 8.426614 -64.966628 25.590583 -28.128544 109.461807 -71.069553 100.154062 0.000000 0.000000 0.000000 3.232084 -0.335421 0.860198 -4.973463 9.796593 -7.253915 -5.220822 -3.061861 0.784344 -29.234968 39.119656 76.610120 -158.658013 73.550325 159.019645 0.000000 0.000000 0.000000 
3.523955 64.361061 21.039347 0.000000 0.000000 0.000000 1.214297 -50.750952 1.906761 -57.141899 -8.886083 37.343909 65.380251 -11.385724 4.417496 3.177798 5.282402 -29.971748 -3.873604 -6.127802 -2.612374 0.000000 0.000000 0.000000 0.324052 -46.237160 2.078891 -46.120606 -6.644984 -42.409051 61.232742 24.250032 -12.992495 -7.191181 -19.917545 42.105015 10.677963 20.393739 -40.961775 0.000000 0.000000 0.000000 3.358114 -43.430233 2.908222 12.735097 -0.286042 -1.369694 1.434538 -2.137968 0.779982 0.291905 0.043223 0.248426 0.000000 0.000000 0.000000 4.282961 -0.106236 1.644856 3.561009 22.347904 9.016721 -11.363785 54.113878 -30.917685 0.000000 0.000000 0.000000 3.196332 -2.327556 0.169773 0.092635 0.463131 -6.117923 7.537527 -6.163771 7.173156 -66.191418 21.307873 -28.727537 59.795950 -63.377626 50.310361 0.000000 0.000000 0.000000 3.960532 -1.614886 2.177153 -5.342046 7.087035 -6.707337 -4.469421 -2.006303 0.149299 -22.355814 41.169119 71.505565 -167.663591 73.592590 167.612706 0.000000 0.000000 0.000000 
